<svg id="Layer_1" data-name="Layer 1" xmlns="http://www.w3.org/2000/svg" width="37.99" height="38.79" viewBox="0 0 37.99 38.79">
  <defs>
    <style>
      .cls-1 {
        fill: #fff;
      }
    </style>
  </defs>
  <title>unity-template</title>
  <g>
    <path class="cls-1" d="M29.65,3.64H8.34a5,5,0,0,0-5,5V30a5,5,0,0,0,5,5h2V33.54h-2A3.59,3.59,0,0,1,4.76,30V8.66A3.59,3.59,0,0,1,8.34,5.08h21.3a3.59,3.59,0,0,1,3.58,3.58V30a3.59,3.59,0,0,1-3.58,3.58H27.3V35h2.35a5,5,0,0,0,5-5V8.66A5,5,0,0,0,29.65,3.64Z"/>
    <path class="cls-1" d="M24.73,22.54a3.28,3.28,0,0,1,3.37-3.49V17.68a4.62,4.62,0,0,0-4.74,4.86v1.07H14.24V22.54a3.28,3.28,0,0,1,3.37-3.49V17.68a4.62,4.62,0,0,0-4.74,4.86V37.88h1.37V34.41h9.12v3.47h1.37V22.54Zm-1.37,8V33H14.24V29.73h9.12v0.84Zm0-2.22H14.24V25h9.12v3.37Z"/>
  </g>
</svg>
