<svg xmlns="http://www.w3.org/2000/svg" width="107.28" height="73.12" viewBox="0 0 107.28 73.12">
  <path class="cls-1" d="M64.29,34.9H43a5,5,0,0,1-5-5V8.59a5,5,0,0,1,5-5h21.3a5,5,0,0,1,5,5v21.3A5,5,0,0,1,64.29,34.9ZM43,5a3.59,3.59,0,0,0-3.58,3.58v21.3A3.59,3.59,0,0,0,43,33.47h21.3a3.59,3.59,0,0,0,3.58-3.58V8.59A3.59,3.59,0,0,0,64.29,5H43Z"/>
  <path class="cls-1" d="M52,21.34a0.84,0.84,0,0,1-.83-1.3L53,16c0.33-.72.88-0.72,1.21,0l1.86,4a0.84,0.84,0,0,1-.83,1.3H52Z"/>
  <path class="cls-1" d="M64.29,69.55H43a5,5,0,0,1-5-5V43.23a5,5,0,0,1,5-5h21.3a5,5,0,0,1,5,5v21.3A5,5,0,0,1,64.29,69.55ZM43,39.65a3.59,3.59,0,0,0-3.58,3.58v21.3A3.59,3.59,0,0,0,43,68.11h21.3a3.59,3.59,0,0,0,3.58-3.58V43.23a3.59,3.59,0,0,0-3.58-3.58H43Z"/>
  <path class="cls-1" d="M55.29,51.78a0.84,0.84,0,0,1,.83,1.3l-1.86,4c-0.33.71-.88,0.71-1.21,0l-1.86-4a0.84,0.84,0,0,1,.83-1.3h3.29Z"/>
  <path class="cls-1" d="M29.65,69.1H8.35a5,5,0,0,1-5-5V42.78a5,5,0,0,1,5-5h21.3a5,5,0,0,1,5,5v21.3A5,5,0,0,1,29.65,69.1ZM8.35,39.2a3.59,3.59,0,0,0-3.58,3.58v21.3a3.59,3.59,0,0,0,3.58,3.58h21.3a3.59,3.59,0,0,0,3.58-3.58V42.78a3.59,3.59,0,0,0-3.58-3.58H8.35Z"/>
  <path class="cls-1" d="M21.36,55.08a0.84,0.84,0,0,1-1.3.83l-4-1.87c-0.72-.33-0.72-0.88,0-1.21l4-1.87a0.84,0.84,0,0,1,1.3.83v3.29Z"/>
  <path class="cls-1" d="M98.94,69.1H77.63a5,5,0,0,1-5-5V42.78a5,5,0,0,1,5-5h21.3a5,5,0,0,1,5,5v21.3A5,5,0,0,1,98.94,69.1ZM77.63,39.2A3.59,3.59,0,0,0,74,42.78v21.3a3.59,3.59,0,0,0,3.58,3.58h21.3a3.59,3.59,0,0,0,3.58-3.58V42.78a3.59,3.59,0,0,0-3.58-3.58H77.63Z"/>
  <path class="cls-1" d="M85.92,51.79a0.84,0.84,0,0,1,1.3-.83l4,1.87c0.71,0.33.71,0.88,0,1.21l-4,1.87a0.84,0.84,0,0,1-1.3-.83V51.79Z"/>
</svg>
