<?xml version="1.0" standalone="no"?>
<!DOCTYPE svg PUBLIC "-//W3C//DTD SVG 20010904//EN"
 "http://www.w3.org/TR/2001/REC-SVG-20010904/DTD/svg10.dtd">
<svg version="1.0" xmlns="http://www.w3.org/2000/svg"
 width="400.000000pt" height="400.000000pt" viewBox="0 0 400.000000 400.000000"
 preserveAspectRatio="xMidYMid meet">
<metadata>
Created by potrace 1.11, written by Peter Selinger 2001-2013
</metadata>
<g transform="translate(0.000000,400.000000) scale(0.100000,-0.100000)"
fill="#000000" stroke="none">
<path d="M691 3759 c-185 -47 -328 -180 -392 -364 l-24 -70 0 -1270 c0 -1055
2 -1278 14 -1320 41 -146 158 -291 284 -353 103 -50 155 -60 324 -61 174 -2
161 -10 155 100 l-4 57 -161 4 c-89 2 -171 9 -182 15 -11 6 -38 19 -59 29 -92
44 -180 160 -204 272 -6 26 -9 527 -8 1275 l1 1232 23 55 c30 75 99 159 163
197 107 64 52 62 1389 61 906 -1 1226 -4 1260 -13 140 -37 244 -138 284 -276
15 -50 16 -179 14 -1305 l-3 -1249 -33 -67 c-49 -99 -129 -169 -247 -214 -11
-4 -98 -10 -194 -13 l-175 -6 1 -67 c1 -38 2 -73 2 -78 1 -16 329 -11 393 6
71 18 163 65 219 111 86 71 164 198 190 310 16 72 16 2497 -1 2578 -41 203
-206 375 -412 428 -48 12 -242 15 -1300 14 -1174 0 -1249 -1 -1317 -18z"/>
<path d="M1717 2214 c-94 -22 -167 -64 -238 -134 -72 -71 -111 -136 -136 -233
-15 -55 -17 -157 -17 -954 l-1 -893 77 0 78 0 0 190 c0 174 1 190 18 191 9 0
234 1 499 2 477 2 483 2 484 -18 0 -11 1 -98 1 -192 l0 -173 76 0 77 0 0 847
c0 467 3 874 6 905 8 66 54 170 94 212 45 46 113 84 174 97 71 15 84 17 92 18
4 1 7 35 7 77 l1 77 -64 -7 c-122 -12 -225 -60 -311 -145 -102 -100 -145 -207
-150 -379 -2 -62 -5 -116 -8 -120 -2 -4 -226 -7 -498 -7 l-493 0 -3 89 c-6
196 80 335 242 390 26 9 65 17 87 18 l39 1 0 79 0 78 -37 -1 c-21 0 -64 -7
-96 -15z m760 -797 c3 -3 5 -86 6 -184 l0 -178 -502 -2 -501 -1 0 183 c0 113
4 185 10 187 17 5 981 1 987 -5z m4 -556 c1 -43 1 -265 0 -301 l-1 -25 -500 0
-500 0 0 176 c0 97 2 178 5 181 3 3 228 5 500 5 l495 0 1 -36z"/>
</g>
</svg>
